<?xml version="1.0" standalone="no"?>
<!DOCTYPE svg PUBLIC "-//W3C//DTD SVG 20010904//EN"
 "http://www.w3.org/TR/2001/REC-SVG-20010904/DTD/svg10.dtd">
<svg version="1.0" xmlns="http://www.w3.org/2000/svg"
 width="980.000000pt" height="980.000000pt" viewBox="0 0 980.000000 980.000000"
 preserveAspectRatio="xMidYMid meet">
<metadata>
Created by potrace 1.11, written by Peter Selinger 2001-2013
</metadata>
<g transform="translate(0.000000,980.000000) scale(0.100000,-0.100000)"
fill="#000000" stroke="none">
<path d="M1695 9748 c-134 -18 -259 -115 -306 -240 -36 -96 -34 -211 7 -298
17 -36 50 -85 73 -110 102 -106 162 -190 220 -307 34 -66 91 -219 91 -243 0
-3 -37 -19 -82 -35 -132 -46 -295 -132 -403 -214 -91 -69 -92 -71 -177 -154
-84 -83 -175 -200 -238 -306 -39 -66 -118 -236 -125 -269 -2 -9 -11 -37 -19
-61 -9 -25 -18 -56 -21 -70 -3 -14 -7 -37 -10 -51 -30 -133 -33 -174 -34 -457
l-1 -243 -64 -29 c-64 -29 -196 -110 -223 -137 -8 -7 -20 -17 -27 -21 -21 -14
-62 -77 -72 -113 -21 -72 3 -195 66 -342 56 -131 125 -233 227 -338 l93 -95 0
-547 0 -547 -70 -47 c-134 -89 -259 -221 -329 -345 -27 -49 -31 -65 -31 -133
0 -57 5 -87 20 -116 19 -38 103 -154 144 -198 35 -39 186 -161 227 -185 l39
-22 0 -550 0 -551 -63 -60 c-162 -157 -258 -320 -311 -529 -45 -176 -16 -249
146 -362 51 -36 183 -104 240 -124 33 -11 40 -20 54 -63 132 -413 408 -738
789 -929 85 -43 267 -109 331 -121 51 -9 148 -25 194 -31 58 -9 5619 -9 5685
-1 98 13 111 15 185 31 509 109 942 495 1116 995 30 85 37 97 66 109 113 50
169 78 218 109 192 125 224 197 174 390 -48 186 -144 351 -284 492 l-85 85 -1
550 -1 550 78 53 c139 95 297 272 346 389 20 50 18 124 -6 178 -55 125 -223
305 -372 399 l-46 29 1 551 1 551 80 80 c154 154 251 327 298 531 29 125 3
214 -85 286 -55 45 -177 119 -244 148 l-51 22 0 222 c-1 312 -10 400 -63 594
-23 82 -29 97 -96 241 -36 75 -121 218 -144 241 -3 3 -23 28 -45 55 -63 80
-189 201 -265 255 -19 14 -42 32 -52 41 -10 9 -31 22 -46 30 -15 8 -55 31 -89
52 -35 20 -66 37 -69 37 -4 0 -30 11 -58 24 -28 13 -81 34 -118 46 -64 21 -67
24 -62 49 13 53 77 217 100 253 13 21 24 40 24 43 0 14 87 129 155 205 42 47
85 103 95 126 92 199 13 426 -180 521 -46 22 -71 27 -146 30 -107 3 -150 -7
-219 -52 -133 -85 -325 -334 -440 -570 -62 -127 -126 -311 -152 -437 l-18 -88
-2337 0 c-1285 0 -2339 3 -2341 8 -3 4 -8 25 -11 47 -4 22 -11 58 -17 80 -6
22 -12 47 -14 55 -7 32 -55 168 -85 240 -76 182 -206 389 -330 524 -109 118
-145 148 -210 171 -82 29 -118 33 -195 23z"/>
</g>
</svg>
